<svg width="70" height="70" viewBox="0 0 70 70" fill="none" xmlns="http://www.w3.org/2000/svg">
<path d="M22.5533 45.2545H22.5565C22.5591 45.2545 22.5618 45.2539 22.5645 45.2539H59.7461C60.6615 45.2539 61.4663 44.6467 61.7178 43.7666L69.921 15.0556C70.0977 14.4367 69.9738 13.7712 69.5866 13.2575C69.1989 12.7437 68.5928 12.4414 67.9492 12.4414H17.8236L16.3577 5.84421C16.1488 4.90587 15.3168 4.2383 14.3555 4.2383H2.05078C0.918045 4.2383 0 5.15634 0 6.28908C0 7.42181 0.918045 8.33986 2.05078 8.33986H12.7106C12.9701 9.50891 19.726 39.9107 20.1147 41.6597C17.9353 42.6071 16.4062 44.7802 16.4062 47.3047C16.4062 50.697 19.1663 53.457 22.5586 53.457H59.7461C60.8788 53.457 61.7969 52.539 61.7969 51.4063C61.7969 50.2735 60.8788 49.3555 59.7461 49.3555H22.5586C21.428 49.3555 20.5078 48.4353 20.5078 47.3047C20.5078 46.1757 21.4248 45.2571 22.5533 45.2545ZM65.2303 16.543L58.1989 41.1524H24.2035L18.7347 16.543H65.2303Z" fill="black"/>
<path d="M20.5078 59.6094C20.5078 63.0017 23.2678 65.7617 26.6602 65.7617C30.0525 65.7617 32.8125 63.0017 32.8125 59.6094C32.8125 56.217 30.0525 53.457 26.6602 53.457C23.2678 53.457 20.5078 56.217 20.5078 59.6094ZM26.6602 57.5586C27.7908 57.5586 28.7109 58.4788 28.7109 59.6094C28.7109 60.74 27.7908 61.6601 26.6602 61.6601C25.5296 61.6601 24.6094 60.74 24.6094 59.6094C24.6094 58.4788 25.5296 57.5586 26.6602 57.5586Z" fill="black"/>
<path d="M49.4922 59.6094C49.4922 63.0017 52.2522 65.7617 55.6445 65.7617C59.0369 65.7617 61.7969 63.0017 61.7969 59.6094C61.7969 56.217 59.0369 53.457 55.6445 53.457C52.2522 53.457 49.4922 56.217 49.4922 59.6094ZM55.6445 57.5586C56.7751 57.5586 57.6953 58.4788 57.6953 59.6094C57.6953 60.74 56.7751 61.6601 55.6445 61.6601C54.5139 61.6601 53.5938 60.74 53.5938 59.6094C53.5938 58.4788 54.5139 57.5586 55.6445 57.5586Z" fill="black"/>
</svg>
