<svg width="71" height="71" viewBox="0 0 71 71" fill="none" xmlns="http://www.w3.org/2000/svg">
<g clip-path="url(#clip0)">
<path d="M60.2488 10.5012C53.6381 3.89068 44.8488 0.25 35.5 0.25C26.1512 0.25 17.3619 3.89068 10.7512 10.5012C4.14068 17.1119 0.5 25.9012 0.5 35.25C0.5 44.5988 4.14068 53.3881 10.7512 59.9988C17.3619 66.6093 26.1512 70.25 35.5 70.25C44.8488 70.25 53.6381 66.6093 60.2488 59.9988C66.8593 53.3881 70.5 44.5988 70.5 35.25C70.5 25.9012 66.8593 17.1119 60.2488 10.5012ZM35.5 9.82031C39.6463 9.82031 43.0195 13.1936 43.0195 17.3398C43.0195 21.4861 39.6463 24.8594 35.5 24.8594C31.3537 24.8594 27.9805 21.4861 27.9805 17.3398C27.9805 13.1936 31.3537 9.82031 35.5 9.82031ZM45.0703 57.6719H25.9297V53.5703H30.0312V33.0625H25.9297V28.9609H40.9688V53.5703H45.0703V57.6719Z" fill="black"/>
</g>
<defs>
<clipPath id="clip0">
<rect width="70" height="70" fill="white" transform="translate(0.5 0.25)"/>
</clipPath>
</defs>
</svg>
