<svg width="70" height="63" viewBox="0 0 70 63" fill="none" xmlns="http://www.w3.org/2000/svg">
<path d="M69.8748 27.0164C70.0747 26.4707 70.0338 25.8657 69.7626 25.3518C69.4912 24.8378 69.0146 24.463 68.4512 24.3204C62.5368 22.823 56.528 21.7411 50.4772 21.0732V16.3562C50.4772 7.82207 43.5342 0.878906 34.9999 0.878906C26.4659 0.878906 19.5227 7.82194 19.5227 16.3562V21.2604C14.0861 21.9276 8.68725 22.9306 3.36407 24.2693L1.55209 24.7252C0.988553 24.867 0.511507 25.2407 0.23932 25.754C-0.032867 26.2672 -0.0750156 26.8718 0.123685 27.4178L11.4975 58.6759C12.2473 60.7367 14.2245 62.1213 16.4174 62.1213H53.3556C55.5434 62.1213 57.5191 60.7412 58.2717 58.6869L63.4493 44.5545C63.4784 44.4858 63.505 44.4154 63.5269 44.3426L69.8748 27.0164ZM23.6283 16.3562C23.6283 10.0858 28.7296 4.98429 35.0002 4.98429C41.2705 4.98429 46.372 10.0856 46.372 16.3562V20.6841C38.8041 20.0846 31.1892 20.1299 23.6284 20.8211V16.3562H23.6283ZM19.5229 25.3987V29.7807C19.5229 30.9143 20.4419 31.8334 21.5756 31.8334C22.7092 31.8334 23.6283 30.9143 23.6283 29.7807V24.944C31.1878 24.2306 38.8048 24.1831 46.3718 24.8018V29.7807C46.3718 30.9143 47.2909 31.8334 48.4245 31.8334C49.5582 31.8334 50.4772 30.9143 50.4772 29.7807V25.2051C55.4349 25.7701 60.3627 26.6208 65.2298 27.7608L60.2378 41.3869C51.8065 39.7323 43.2938 38.8925 34.9066 38.89C34.8934 38.89 34.881 38.89 34.8679 38.89C26.4722 38.89 17.972 39.7289 9.57456 41.3842L4.7599 28.1524C9.6267 26.9447 14.5581 26.0278 19.5229 25.3987ZM54.417 57.2745C54.2545 57.7179 53.828 58.0158 53.3558 58.0158H16.4177C15.9443 58.0158 15.5177 57.7169 15.3558 57.2721L10.9965 45.2918C18.9287 43.7688 26.9468 42.9951 34.8679 42.9951H34.9052C42.8158 42.9974 50.8445 43.7719 58.8064 45.2934L54.417 57.2745Z" fill="white"/>
</svg>
