<svg width="70" height="70" viewBox="0 0 70 70" fill="none" xmlns="http://www.w3.org/2000/svg">
<g clip-path="url(#clip0)">
<path d="M69.8747 30.5163C70.0746 29.9706 70.0337 29.3656 69.7624 28.8517C69.4911 28.3377 69.0144 27.9629 68.451 27.8203C62.5367 26.3229 56.5279 25.241 50.4771 24.5731V19.8561C50.4771 11.322 43.5341 4.37881 34.9998 4.37881C26.4658 4.37881 19.5226 11.3218 19.5226 19.8561V24.7603C14.086 25.4275 8.68714 26.4305 3.36396 27.7693L1.55198 28.2251C0.988443 28.3669 0.511397 28.7406 0.23921 29.2539C-0.0329776 29.7671 -0.0751263 30.3717 0.123574 30.9177L11.4974 62.1758C12.2472 64.2366 14.2243 65.6212 16.4173 65.6212H53.3555C55.5433 65.6212 57.5189 64.2411 58.2716 62.1868L63.4492 48.0544C63.4783 47.9857 63.5049 47.9154 63.5268 47.8425L69.8747 30.5163ZM23.6282 19.8561C23.6282 13.5857 28.7295 8.4842 35.0001 8.4842C41.2704 8.4842 46.3719 13.5856 46.3719 19.8561V24.184C38.804 23.5845 31.189 23.6298 23.6283 24.321V19.8561H23.6282ZM19.5228 28.8986V33.2806C19.5228 34.4142 20.4418 35.3333 21.5755 35.3333C22.7091 35.3333 23.6282 34.4142 23.6282 33.2806V28.4439C31.1877 27.7305 38.8047 27.683 46.3717 28.3017V33.2806C46.3717 34.4142 47.2908 35.3333 48.4244 35.3333C49.5581 35.3333 50.4771 34.4142 50.4771 33.2806V28.705C55.4348 29.2701 60.3626 30.1207 65.2297 31.2607L60.2377 44.8868C51.8064 43.2322 43.2936 42.3924 34.9065 42.3899C34.8933 42.3899 34.8809 42.3899 34.8677 42.3899C26.4721 42.3899 17.9719 43.2288 9.57445 44.8841L4.75979 31.6523C9.62659 30.4446 14.558 29.5277 19.5228 28.8986ZM54.4169 60.7744C54.2543 61.2178 53.8279 61.5157 53.3557 61.5157H16.4176C15.9442 61.5157 15.5175 61.2168 15.3557 60.7721L10.9964 48.7917C18.9286 47.2688 26.9467 46.495 34.8677 46.495H34.9051C42.8156 46.4973 50.8444 47.2718 58.8063 48.7934L54.4169 60.7744Z" fill="black"/>
</g>
<defs>
<clipPath id="clip0">
<rect width="70" height="70" fill="white"/>
</clipPath>
</defs>
</svg>
