<svg width="71" height="71" viewBox="0 0 71 71" fill="none" xmlns="http://www.w3.org/2000/svg">
<g clip-path="url(#clip0)">
<path d="M41.9296 8.66878C41.1943 8.49173 40.457 8.94359 40.2801 9.67749C40.1032 10.4115 40.5548 11.1501 41.2888 11.327C52.3701 13.9983 60.1093 23.8358 60.1093 35.2498C60.1093 48.8194 49.0697 59.8591 35.5 59.8591C21.9303 59.8591 10.8907 48.8194 10.8907 35.2498C10.8907 23.8362 18.6295 13.9987 29.7103 11.3271C30.4443 11.1501 30.8959 10.4115 30.719 9.67763C30.5419 8.94359 29.8031 8.49228 29.0695 8.66892C23.207 10.0824 17.8956 13.4713 14.1139 18.2112C10.2164 23.096 8.15637 28.9878 8.15637 35.2498C8.15637 50.3271 20.4227 62.5935 35.5 62.5935C50.5773 62.5935 62.8437 50.3272 62.8437 35.2498C62.8437 28.9877 60.7836 23.0957 56.8859 18.2108C53.104 13.471 47.7923 10.0822 41.9296 8.66878Z" fill="black"/>
<path d="M69.6757 31.9615L68.0762 28.9774L68.343 25.2882C68.5995 22.9235 67.6562 20.6157 65.8166 19.1107L63.1615 16.9366L62.1171 13.7904C61.5322 11.3849 59.7053 9.45141 57.3348 8.73542L54.0576 7.7453L51.5477 4.84414C50.0627 3.09729 47.8149 2.18866 45.5346 2.41275L42.133 2.75167L38.7893 1.07427C36.7287 -0.0242567 34.2718 -0.0252138 32.211 1.07414L29.2269 2.67347L25.5379 2.40659C23.1722 2.15011 20.8653 3.09347 19.3604 4.93301L17.1862 7.58808L14.0402 8.63247C11.6345 9.21735 9.70099 11.0443 8.98499 13.4146L7.99502 16.6919L5.09386 19.2019C3.34715 20.6869 2.43797 22.9343 2.66233 25.215L3.00125 28.6166L1.32385 31.9603C0.225187 34.021 0.224366 36.4777 1.32358 38.5388L2.92305 41.5228L2.65617 45.212C2.39983 47.5766 3.34304 49.8843 5.18259 51.3894L7.83766 53.5635L8.88205 56.7097C9.46679 59.1153 11.2938 61.0487 13.6643 61.7647L16.9414 62.7547L19.4515 65.656C20.9366 67.4027 23.1835 68.3119 25.4646 68.0874L28.866 67.7485L32.2095 69.4256C33.2402 69.9752 34.37 70.2501 35.4998 70.2501C36.6289 70.2501 37.7579 69.9756 38.7881 69.4261L41.7722 67.8268L45.4613 68.0937C47.8258 68.3496 50.1336 67.4068 51.6389 65.5673L53.813 62.9122L56.9593 61.8679C59.3647 61.2831 61.298 59.4561 62.014 57.0857L63.0041 53.8085L65.9054 51.2985C67.6521 49.8135 68.5613 47.5661 68.337 45.2853L67.9979 41.884L69.6752 38.5403C70.7738 36.4794 70.7749 34.0225 69.6757 31.9615ZM67.2565 37.2643C67.2505 37.2755 67.2446 37.2867 67.239 37.2979L65.3761 41.0118C65.26 41.2432 65.212 41.5028 65.2376 41.7605L65.6159 45.5545C65.7523 46.9417 65.1985 48.3103 64.1254 49.2227L60.9155 51.9998C60.7197 52.1692 60.5762 52.3905 60.5014 52.6382L59.3965 56.2948C58.9562 57.7527 57.7598 58.8737 56.2743 59.22C56.2337 59.2294 56.1935 59.2408 56.154 59.2539L52.5755 60.4416C52.3299 60.5232 52.1123 60.6727 51.9484 60.873L49.523 63.8352C48.6018 64.9612 47.1867 65.5362 45.7385 65.3733C45.7205 65.3712 45.7023 65.3696 45.6844 65.3682L41.5744 65.071C41.3156 65.0524 41.058 65.1073 40.8299 65.2296L37.4989 67.0148C36.2428 67.6848 34.7424 67.682 33.4853 67.007C33.4741 67.0012 33.4629 66.9953 33.4517 66.9897L29.7379 65.1268C29.547 65.0311 29.337 64.9816 29.1248 64.9816C29.0797 64.9816 29.0344 64.9837 28.9892 64.9883L25.1953 65.3663C23.8081 65.5033 22.4394 64.9489 21.527 63.8759L18.75 60.6661C18.5807 60.4703 18.3592 60.3266 18.1113 60.2518L14.4548 59.1473C12.9967 58.7069 11.8759 57.5105 11.5296 56.0249C11.5202 55.9843 11.5088 55.9442 11.4957 55.9046L10.308 52.326C10.2265 52.0803 10.077 51.8629 9.87667 51.699L6.91467 49.2735C5.78866 48.3523 5.21362 46.9375 5.37659 45.4891C5.37864 45.4711 5.38028 45.453 5.38165 45.4348L5.67888 41.3247C5.69761 41.0665 5.64251 40.8084 5.52028 40.5802L3.73488 37.2495C3.06496 35.9933 3.06783 34.493 3.74254 33.2359C3.74855 33.2248 3.75429 33.2136 3.7599 33.2024L5.62282 29.4884C5.73889 29.2571 5.78688 28.9975 5.76118 28.7399L5.38315 24.9457C5.24671 23.5584 5.80055 22.1899 6.87366 21.2774L10.0835 18.5004C10.2793 18.331 10.4229 18.1096 10.4978 17.8619L11.6025 14.2052C12.0428 12.7473 13.2393 11.6265 14.7248 11.28C14.7654 11.2706 14.8055 11.2592 14.8451 11.2461L18.4235 10.0583C18.6692 9.97682 18.8865 9.82725 19.0505 9.62696L21.4761 6.66482C22.3973 5.53894 23.8125 4.96418 25.2605 5.12688C25.2785 5.12893 25.2966 5.13057 25.3146 5.13193L29.4246 5.42916C29.6821 5.44748 29.9409 5.39279 30.1691 5.27057L33.4999 3.4853C34.756 2.81538 36.2564 2.81811 37.5134 3.49296C37.5245 3.49883 37.5357 3.50471 37.5471 3.51032L41.261 5.37324C41.4923 5.48932 41.752 5.53744 42.0095 5.5116L45.8036 5.13357C47.1908 4.99686 48.5594 5.55098 49.4719 6.62408L52.2489 9.83395C52.4182 10.0297 52.6397 10.1733 52.8875 10.2482L56.5441 11.3529C58.002 11.7933 59.1228 12.9898 59.4693 14.4753C59.4787 14.5159 59.4901 14.5559 59.5032 14.5956L60.691 18.1739C60.7726 18.4196 60.9221 18.637 61.1223 18.8009L64.0845 21.2264C65.2105 22.1476 65.7854 23.5622 65.6224 25.0108C65.6204 25.0288 65.6187 25.0469 65.6175 25.065L65.3203 29.1752C65.3015 29.4333 65.3566 29.6914 65.4787 29.9196L67.2641 33.2505C67.9342 34.5069 67.9313 36.0073 67.2565 37.2643Z" fill="black"/>
<path d="M29.5666 27.8009C29.3473 27.3388 28.8777 27.0185 28.3322 27.0185H21.1084C20.3533 27.0185 19.7412 27.6306 19.7412 28.3857V49.0801C19.7412 49.8352 20.3533 50.4473 21.1084 50.4473H28.3322C28.8989 50.4473 29.3849 50.1027 29.5922 49.6114C30.6344 49.7577 31.708 50.0541 32.8258 50.3637C34.5064 50.8289 36.2439 51.31 38.0493 51.31H45.9419C48.3818 51.31 50.3588 50.0165 51.2307 47.8497C51.6553 46.7939 51.7297 45.6983 51.4816 44.781C51.9355 44.3729 52.3191 43.8649 52.6092 43.2717C53.1973 42.0697 53.3147 40.7179 52.9814 39.5795C53.6026 38.9793 54.0661 38.1867 54.3084 37.2522C54.5349 36.3786 54.5309 35.5166 54.3294 34.7697C55.5626 34.0443 56.3932 32.7263 56.3932 31.2413C56.3932 30.0766 55.9397 29.0034 55.1161 28.2194C54.3253 27.4666 53.272 27.052 52.1504 27.052L41.0255 27.0522C40.1803 25.992 39.9173 24.5532 40.3985 23.395C41.3862 21.018 41.3249 19.006 40.2004 16.8712C39.3656 15.2868 37.121 13.7094 35.2344 13.9787C34.094 14.1417 33.2689 14.9476 33.0269 16.1349C32.9557 16.4842 32.9362 16.8615 32.9136 17.2985C32.8578 18.3764 32.7813 19.8527 31.8508 21.6353C31.2201 22.8438 31.0097 24.0867 30.824 25.1833C30.5581 26.7542 30.4292 27.5109 29.5666 27.8009ZM22.4756 29.7528H26.965V47.713H22.4756V29.7528ZM33.5201 25.6397C33.6794 24.6989 33.844 23.726 34.2749 22.9007C35.4812 20.5896 35.5833 18.618 35.6444 17.44C35.6607 17.1262 35.676 16.8298 35.7063 16.6808C35.7065 16.6798 35.7068 16.6787 35.707 16.6778C36.1813 16.6844 37.3485 17.3246 37.7812 18.146C38.5301 19.5673 38.555 20.7058 37.8736 22.3461C37.2591 23.8251 37.3053 25.5414 37.9131 27.0673C37.248 27.1598 36.7356 27.7293 36.7356 28.4198C36.7356 29.1748 37.3478 29.787 38.1027 29.787L52.1504 29.7866C52.567 29.7866 52.9507 29.9334 53.2307 30.2C53.4261 30.3858 53.6588 30.7175 53.6588 31.2414C53.6588 31.9748 52.9866 32.6089 52.1907 32.6262L48.6717 32.7028C47.9169 32.7192 47.3182 33.3444 47.3346 34.0994C47.3509 34.8442 47.9596 35.4369 48.701 35.4369C48.711 35.4369 48.7211 35.4369 48.7314 35.4366L51.662 35.3729C51.7576 35.6438 51.8074 36.1604 51.6061 36.7523C51.4348 37.2557 50.975 38.1 49.8184 38.1C49.0634 38.1 48.4512 38.7121 48.4512 39.4672C48.4512 40.2223 49.0634 40.8344 49.8184 40.8344C50.0257 40.8344 50.2291 40.8215 50.4282 40.7963C50.4451 41.1832 50.3655 41.6364 50.1532 42.0703C49.9022 42.5833 49.4061 43.195 48.4679 43.195C47.7129 43.195 47.1007 43.8071 47.1007 44.5622C47.1007 45.3173 47.7129 45.9293 48.4679 45.9293C48.6094 45.9293 48.7494 45.9231 48.8876 45.9106C48.8841 46.173 48.8307 46.501 48.6816 46.8597C48.4672 47.3757 47.7709 48.5757 45.9422 48.5757H38.0496C36.6158 48.5757 35.1294 48.1641 33.5558 47.7284C32.3036 47.3817 31.0196 47.0265 29.6996 46.8679V30.568C32.7777 30.0101 33.2021 27.5183 33.5201 25.6397Z" fill="black"/>
<path d="M35.5003 10.6409C36.2554 10.6409 36.8675 10.0288 36.8675 9.27368C36.8675 8.51858 36.2554 7.90649 35.5003 7.90649H35.4993C34.7442 7.90649 34.1327 8.51858 34.1327 9.27368C34.1327 10.0288 34.7452 10.6409 35.5003 10.6409Z" fill="black"/>
</g>
<defs>
<clipPath id="clip0">
<rect width="70" height="70" fill="white" transform="translate(0.5 0.25)"/>
</clipPath>
</defs>
</svg>
