<svg width="71" height="71" viewBox="0 0 71 71" fill="none" xmlns="http://www.w3.org/2000/svg">
<g clip-path="url(#clip0)">
<path d="M67.9997 0.25H40.4996C39.8366 0.250146 39.2008 0.513674 38.7321 0.982574L1.23178 38.4829C0.255748 39.4592 0.255748 41.0417 1.23178 42.0178L28.7319 69.518C29.7083 70.4939 31.2907 70.4939 32.2669 69.518L69.7672 32.0177C70.2361 31.549 70.4996 30.9132 70.4998 30.2502V2.75007C70.4998 1.3693 69.3805 0.25 67.9997 0.25ZM65.4998 29.2152L30.4994 64.2155L6.53426 40.2504L41.5346 5.24999H65.4998V29.2152Z" fill="black"/>
<path d="M52.9998 10.25C48.8576 10.25 45.4997 13.6079 45.4997 17.7501C45.4997 21.8922 48.8576 25.2501 52.9998 25.2501C57.142 25.2501 60.4998 21.8922 60.4998 17.7501C60.4998 13.6079 57.142 10.25 52.9998 10.25ZM52.9998 20.25C51.619 20.25 50.4997 19.1307 50.4997 17.7499C50.4997 16.3691 51.619 15.2498 52.9998 15.2498C54.3806 15.2498 55.4999 16.3691 55.4999 17.7499C55.4999 19.1307 54.3806 20.25 52.9998 20.25Z" fill="black"/>
</g>
<defs>
<clipPath id="clip0">
<rect width="70" height="70" fill="white" transform="translate(0.5 0.25)"/>
</clipPath>
</defs>
</svg>
