<svg width="68" height="68" viewBox="0 0 68 68" fill="none" xmlns="http://www.w3.org/2000/svg">
<g clip-path="url(#clip0)">
<path d="M51.1019 40.084C46.445 40.084 42.6565 43.8725 42.6565 48.5294C42.6565 53.1863 46.445 56.9748 51.1019 56.9748C55.7596 56.9748 59.5473 53.1863 59.5473 48.5294C59.5473 43.8725 55.7588 40.084 51.1019 40.084ZM51.1019 52.7521C48.7731 52.7521 46.8792 50.8582 46.8792 48.5294C46.8792 46.2006 48.7731 44.3067 51.1019 44.3067C53.4307 44.3067 55.3246 46.2006 55.3246 48.5294C55.3246 50.8583 53.4307 52.7521 51.1019 52.7521Z" fill="black"/>
<path d="M22.2469 40.084C17.59 40.084 13.8015 43.8725 13.8015 48.5294C13.8015 53.1863 17.59 56.9748 22.2469 56.9748C26.9038 56.9748 30.6923 53.1863 30.6923 48.5294C30.6923 43.8725 26.9038 40.084 22.2469 40.084ZM22.2469 52.7521C19.9181 52.7521 18.0242 50.8582 18.0242 48.5294C18.0242 46.2006 19.9181 44.3067 22.2469 44.3067C24.575 44.3067 26.4696 46.2006 26.4696 48.5294C26.4696 50.8583 24.5756 52.7521 22.2469 52.7521Z" fill="black"/>
<path d="M56.7892 15.9105C56.4302 15.1976 55.7004 14.7478 54.9023 14.7478H43.7825V18.9705H53.6002L59.3494 30.4055L63.1231 28.5081L56.7892 15.9105Z" fill="black"/>
<path d="M44.7679 46.4885H28.7921V50.7112H44.7679V46.4885Z" fill="black"/>
<path d="M15.9127 46.4885H8.59352C7.4273 46.4885 6.48224 47.4337 6.48224 48.5998C6.48224 49.766 7.42744 50.7111 8.59352 50.7111H15.9129C17.0791 50.7111 18.0242 49.7659 18.0242 48.5998C18.0242 47.4336 17.079 46.4885 15.9127 46.4885Z" fill="black"/>
<path d="M67.0567 33.581L62.9037 28.2323C62.5047 27.7171 61.8889 27.4158 61.2364 27.4158H45.8939V12.6364C45.8939 11.4702 44.9487 10.5251 43.7827 10.5251H8.59352C7.42731 10.5251 6.48224 11.4703 6.48224 12.6364C6.48224 13.8025 7.42744 14.7477 8.59352 14.7477H41.6712V29.5271C41.6712 30.6933 42.6164 31.6384 43.7825 31.6384H60.2025L63.2773 35.5992V46.4882H57.4359C56.2697 46.4882 55.3246 47.4334 55.3246 48.5995C55.3246 49.7657 56.2698 50.7108 57.4359 50.7108H65.3886C66.5548 50.7108 67.4999 49.7656 67.5 48.5995V34.876C67.5 34.4072 67.3438 33.9512 67.0567 33.581Z" fill="black"/>
<path d="M15.7721 35.791H6.05982C4.8936 35.791 3.94854 36.7362 3.94854 37.9023C3.94854 39.0685 4.89373 40.0136 6.05982 40.0136H15.7719C16.9382 40.0136 17.8832 39.0684 17.8832 37.9023C17.8834 36.7362 16.9382 35.791 15.7721 35.791Z" fill="black"/>
<path d="M20.6281 27.4863H2.61129C1.4452 27.4863 0.5 28.4315 0.5 29.5977C0.5 30.764 1.4452 31.709 2.61129 31.709H20.6281C21.7944 31.709 22.7394 30.7638 22.7394 29.5977C22.7394 28.4317 21.7944 27.4863 20.6281 27.4863Z" fill="black"/>
<path d="M24.0767 19.1816H6.05982C4.8936 19.1816 3.94854 20.1268 3.94854 21.2929C3.94854 22.4591 4.89373 23.4042 6.05982 23.4042H24.0767C25.2429 23.4042 26.188 22.459 26.188 21.2929C26.1881 20.1268 25.2429 19.1816 24.0767 19.1816Z" fill="black"/>
</g>
<defs>
<clipPath id="clip0">
<rect width="67" height="67" fill="white" transform="translate(0.5 0.25)"/>
</clipPath>
</defs>
</svg>
